<svg width="201" height="201" viewBox="0 0 201 201" fill="none" xmlns="http://www.w3.org/2000/svg">
    <path d="M100.5 201C156.005 201 201 156.005 201 100.5C201 44.9954 156.005 0 100.5 0C44.9954 0 0 44.9954 0 100.5C0 156.005 44.9954 201 100.5 201Z" fill="#4DC0B5"/>
    <path d="M107.497 87.6856C106.513 87.0528 105.365 86.8812 104.305 87.1175C103.256 87.3509 102.294 87.9837 101.667 88.9597C101.037 89.9412 100.865 91.0831 101.099 92.1378C101.329 93.1925 101.962 94.1599 102.941 94.7872C107.01 97.3944 109.438 101.821 109.438 106.625C109.438 110.383 107.975 113.912 105.32 116.567L88.4451 133.442C85.7874 136.1 82.2549 137.562 78.5001 137.562C70.746 137.562 64.4376 131.254 64.4376 123.5C64.4376 119.743 65.9001 116.213 68.5551 113.558L76.5596 105.551C77.4032 104.707 77.814 103.596 77.7971 102.491C77.7774 101.436 77.3668 100.39 76.5596 99.5853C75.7354 98.7612 74.6554 98.3478 73.5784 98.3478C72.4984 98.3478 71.4184 98.7584 70.5972 99.5853L62.5928 107.593C58.34 111.839 56 117.49 56 123.5C56 135.906 66.0941 146 78.5 146C84.5103 146 90.1606 143.66 94.4103 139.408L111.285 122.533C115.535 118.289 117.875 112.635 117.875 106.625C117.875 98.9328 113.997 91.8538 107.497 87.6856ZM123.5 56C117.49 56 111.839 58.34 107.59 62.5925L90.7147 79.4675C86.465 83.7115 84.125 89.3647 84.125 95.3722C84.125 103.064 88.0035 110.146 94.5031 114.314C95.4875 114.944 96.635 115.116 97.6953 114.88C98.7443 114.649 99.7062 114.016 100.333 113.04C100.963 112.056 101.135 110.914 100.901 109.859C100.671 108.805 100.038 107.837 99.0593 107.213C94.9924 104.603 92.5624 100.176 92.5624 95.3722C92.5624 91.6147 94.0249 88.085 96.6799 85.43L113.555 68.555C116.213 65.9 119.745 64.4375 123.5 64.4375C131.254 64.4375 137.562 70.7459 137.562 78.4972C137.562 82.2547 136.1 85.7844 133.445 88.4394L125.441 96.4438C124.597 97.2875 124.186 98.3985 124.203 99.5038C124.223 100.559 124.633 101.605 125.441 102.409C126.265 103.233 127.345 103.644 128.425 103.644C129.505 103.644 130.585 103.233 131.406 102.409L139.41 94.4019C143.66 90.1606 146 84.5075 146 78.4972C146 66.0941 135.906 56 123.5 56Z" fill="white"/>
</svg>
